# xmcd
#
# Track frame offsets:
#	150
#	5157
#	16832
#	39282
#	58547
#	79015
#	103182
#	117410
#	134970
#	151527
#	166837
#	187227
#	207417
#	233707
#
# Disc length: 4368 seconds
#
# Revision: 1
# Processed by: cddbd v1.5.1PL0 Copyright (c) Steve Scherf et al.
# Submitted via: CDex 1.50Beta5
#
DISCID=b7110e0e
DTITLE=Dragon Ash - LILY OF DA VALLEY
DYEAR=2001
DGENRE=Rock
TTITLE0=Intro
TTITLE1=21st Century Riot
TTITLE2=Glory
TTITLE3=Amploud
TTITLE4=Bring It
TTITLE5=Sunset Beach
TTITLE6=My Friends’ Anthem
TTITLE7=百合の咲く場所で
TTITLE8=Aim High
TTITLE9=Revolater
TTITLE10=Deep Impact
TTITLE11=静かな日々の階段を
TTITLE12=Lily of da valley
TTITLE13=Outro
EXTD=
EXTT0=
EXTT1=
EXTT2=
EXTT3=
EXTT4=
EXTT5=
EXTT6=
EXTT7=
EXTT8=
EXTT9=
EXTT10=
EXTT11=
EXTT12=
EXTT13=
PLAYORDER=
